<svg xmlns="http://www.w3.org/2000/svg" viewBox="0 0 450.19 397.75">
<defs>
<style>.cls-1{fill:#8c52ff;}.cls-2{fill:#eaeff2;}.cls-3{fill:none;}.cls-4{fill:#e1e8ed;}.cls-5{fill:#8899a6;}.cls-6{fill:#fff;}</style></defs><title>Sem título-2</title><g id="lilás"><path class="cls-1" d="M657.76,605.05s18.49,2.31,32.37,6c2.67.72,5.33,1.5,5.33,1.5,4.68,1.39,8.37,2.66,11.17,3.63a260.27,260.27,0,0,1,35.88,15.44,207.08,207.08,0,0,1,19.92,11.87c4.7,3.22,8,5.82,10.75,7.94a252.32,252.32,0,0,1,26.32,23.67,184.19,184.19,0,0,1,14.08,16.12,148.68,148.68,0,0,1,13.54,20.53,116.57,116.57,0,0,1,12,29.94A107.82,107.82,0,0,1,842,770.17a110.44,110.44,0,0,1-11.57,44.68c-2.7,5.68-5.48,10.26-11,19.4-4.64,7.63-8.2,12.89-15.14,23.09-9.12,13.4-13.8,20.26-20.23,28.2a178.36,178.36,0,0,1-12.94,14.72,128.61,128.61,0,0,1-21.31,17.86,91.29,91.29,0,0,1-15.39,8.58c-8,3.43-14.57,4.8-23.07,6.51-7.77,1.57-13.69,2.27-18.07,2.77-8.08.94-11,.9-29.91,2-8.89.52-15.71,1-22.34,1.41-20.65,1.37-19.39,1.47-25.92,1.77-9.88.46-17.73.4-33.43.27-18.86-.16-25.28-.66-27.85-.88-7.92-.67-14.69-1.6-19.46-2.35-7.68-1.21-13.43-2.46-15-2.8-16.6-3.64-20.27-5.06-21.7-5.83s-2.7-1.3-5.28-2.39c-.51-.21.15.07-3.81-1.13a3.22,3.22,0,0,0-2.3-.18,2.69,2.69,0,0,0-1.28,1.27,36.72,36.72,0,0,0-3.59,12.26A48.94,48.94,0,0,0,481,947c.09,1.48.52,6.87,4.41,14.42,3.17,6.16,6.72,10,11.07,14.65a149.78,149.78,0,0,0,15.93,14.29,50.6,50.6,0,0,0,5.58,4.08c1.15.67,1.95,1.21,3.56,2.29,2,1.38,2.22,1.59,2.18,1.75-.25.95-8.1-.31-9.14-.49a103,103,0,0,1-14-3.29c-7.19-2.23-12.35-3.83-18.92-7.12-5.23-2.62-8.69-5-15.3-9.47a135.47,135.47,0,0,1-12.08-9c-3.54-3-6-5.43-8.59-8-2.18-2.15-6.08-6-10.7-11.42A182.26,182.26,0,0,1,421.69,932a168.39,168.39,0,0,1-10.06-16.54,161.63,161.63,0,0,1-7.91-17.5,175.26,175.26,0,0,1-6.63-21.71A199.47,199.47,0,0,1,392.56,847a210.19,210.19,0,0,1-.5-25.95,224,224,0,0,1,2.34-23.85,265.34,265.34,0,0,1,17.33-63.8,229.65,229.65,0,0,1,15.63-32,211.73,211.73,0,0,1,18.55-26.59,204,204,0,0,1,23-23.5,208.47,208.47,0,0,1,51.36-33A194.51,194.51,0,0,1,556,606.31a208.23,208.23,0,0,1,26.59-4.11c2.87-.28,10.89-1,22.11-1.13C624.09,600.85,638.18,602.61,657.76,605.05Z" transform="translate(-391.88 -601.05)"/></g><g id="cinza_claro" data-name="cinza claro"><path class="cls-2" d="M612.82,749.81c-1.46-10.53-3.29-23.72-11.32-38.68C596.26,701.35,590.19,690,577,684a40.43,40.43,0,0,0-23.24-3.5,39.82,39.82,0,0,0-15.64,6.17C536,688,528,693.41,519.42,709.07a118.2,118.2,0,0,0-12.13,35.59,133.36,133.36,0,0,0-.41,42.79c1.4,9.35,3.29,21.28,10.49,35,3.92,7.48,9.56,17.91,21.39,25.51,3.76,2.42,9.29,5.89,17.28,6.79,11.68,1.32,20.68-3.75,24.48-6,11.68-6.8,17-16.83,21.81-25.92,7-13.16,9-24.63,10.28-32.29A137.27,137.27,0,0,0,612.82,749.81ZM605,775.51a117.54,117.54,0,0,1-4.07,24.7c-2.32,8.26-5.07,17.77-12.35,27.77-4.42,6.07-8.52,11.72-16.45,15a31.21,31.21,0,0,1-19.75,1.44c-8.38-2.24-13.28-7.61-17.49-12.34-10.59-11.91-14.06-24.81-16.66-35a119.44,119.44,0,0,1-3.5-35.18,116.39,116.39,0,0,1,7.41-36c3.37-8.68,7.94-20,18.92-29.21,7.14-6,12.36-7.12,13.79-7.4,10.34-2.06,18.89,3,21.39,4.52a36.23,36.23,0,0,1,9.34,8.33,49.64,49.64,0,0,1,6,9.29,99,99,0,0,1,6.85,15.91,126.69,126.69,0,0,1,4.52,18.31A124.14,124.14,0,0,1,605,775.51Z" transform="translate(-391.88 -601.05)"/><path class="cls-3" d="M632.57,840.94" transform="translate(-391.88 -601.05)"/><path class="cls-4" d="M727.48,749.46c-1.46-10.52-3.29-23.72-11.31-38.67-5.25-9.78-11.32-21.09-24.48-27.16a40.48,40.48,0,0,0-23.25-3.49,39.67,39.67,0,0,0-15.63,6.17c-2.13,1.36-10.16,6.75-18.72,22.42A118.17,118.17,0,0,0,622,744.32a133.66,133.66,0,0,0-.41,42.79c1.4,9.34,3.3,21.27,10.49,35,3.93,7.47,9.57,17.91,21.4,25.51,3.75,2.41,9.29,5.88,17.28,6.79,11.68,1.32,20.67-3.76,24.48-6,11.68-6.8,17-16.84,21.8-25.92,7-13.16,9-24.63,10.29-32.3A137.4,137.4,0,0,0,727.48,749.46Zm-7.86,25.7a116.61,116.61,0,0,1-4.07,24.7c-2.31,8.27-5.06,17.77-12.34,27.77-4.42,6.07-8.53,11.72-16.46,15A31.27,31.27,0,0,1,667,844.09c-8.37-2.25-13.28-7.62-17.48-12.34-10.6-11.92-14.06-24.82-16.67-35a119.28,119.28,0,0,1-3.49-35.18,116,116,0,0,1,7.4-36c3.38-8.69,7.94-20.05,18.93-29.21,7.14-6,12.36-7.13,13.78-7.41,10.35-2.06,18.89,3,21.4,4.53a36.59,36.59,0,0,1,9.34,8.32,51.35,51.35,0,0,1,6,9.29A98.53,98.53,0,0,1,713.08,727a139.29,139.29,0,0,1,6.54,48.12Z" transform="translate(-391.88 -601.05)"/></g><g id="cinza_escuro" data-name="cinza escuro"><circle class="cls-5" cx="147.35" cy="166.09" r="25.77"/><circle class="cls-5" cx="261.34" cy="165.04" r="26.61"/></g><g id="preto"><circle cx="146.41" cy="165.74" r="18.21"/><circle cx="260.85" cy="165.04" r="18.21"/></g><g id="branco"><path class="cls-6" d="M605,753.78a109.48,109.48,0,0,0-4.73-23.62c-2.93-9.15-7.64-23.25-20.07-34.17-6.79-6-11.76-7.36-14-7.84a29,29,0,0,0-15.88,1.25c-6.68,2.35-10.7,6.31-14.18,9.83s-8.5,9.49-13.25,20c-7,15.4-8.26,28.88-8.93,36.68a126.43,126.43,0,0,0,2.31,37.41,107.22,107.22,0,0,0,9.67,27.38c4.33,8.15,8.09,15,16.19,20.27,3.18,2.07,9.85,6.26,18.81,5.75,7.48-.43,12.89-3.92,15.56-5.64a41.72,41.72,0,0,0,9.77-9.1,67.61,67.61,0,0,0,10.3-17c5.31-12.17,6.67-22.5,7.78-31.35A127.44,127.44,0,0,0,605,753.78Zm-44.43,26.58a25.72,25.72,0,0,1-8,8,26.23,26.23,0,0,1-16.08,4,25.43,25.43,0,0,1-15.45-6.9,25.08,25.08,0,0,1-7.26-14.42,26,26,0,0,1,2.74-16,25.7,25.7,0,0,1,13.14-11.39,26,26,0,0,1,33.94,17C566.3,770.71,561.4,778.94,560.52,780.36Z" transform="translate(-391.88 -601.05)"/>
<path class="cls-6" d="M720.48,752.65a110.14,110.14,0,0,0-4.86-23.9c-3-9.26-7.83-23.53-20.6-34.58-7-6-12.06-7.44-14.34-7.93a29.94,29.94,0,0,0-16.28,1.26c-6.86,2.38-11,6.39-14.56,10s-8.72,9.61-13.59,20.2c-7.18,15.59-8.48,29.23-9.17,37.12a126.33,126.33,0,0,0,2.38,37.86,107.47,107.47,0,0,0,9.92,27.71c4.44,8.25,8.3,15.21,16.61,20.52,3.26,2.09,10.11,6.33,19.3,5.82,7.67-.43,13.23-4,16-5.71a42.71,42.71,0,0,0,10-9.2,68.74,68.74,0,0,0,10.57-17.24c5.44-12.32,6.84-22.78,8-31.73A127.51,127.51,0,0,0,720.48,752.65Zm-45.6,26.91a26.11,26.11,0,0,1-8.19,8.14,27.12,27.12,0,0,1-16.5,4,26.16,26.16,0,0,1-15.85-7,25.19,25.19,0,0,1-7.45-14.59A26,26,0,0,1,629.7,754a27,27,0,0,1,29.76-12.58,25.71,25.71,0,0,1,12,7.3,25.06,25.06,0,0,1,6.58,11C680.82,769.79,675.79,778.12,674.88,779.56Z" transform="translate(-391.88 -601.05)"/><circle class="cls-6" cx="154.39" cy="153.46" r="7.99"/><circle class="cls-6" cx="270.15" cy="153.46" r="7.99"/></g></svg>